<svg id="Layer_2" data-name="Layer 2" xmlns="http://www.w3.org/2000/svg" width="54" height="54" viewBox="0 0 54 54">
  <g id="_ÎÓÈ_1" data-name="—ÎÓÈ 1" transform="translate(0 0)">
    <circle id="Ellipse_22" data-name="Ellipse 22" cx="27" cy="27" r="27" fill="#ffc200"/>
    <path id="Path_12" data-name="Path 12" d="M47.076,50.412A27,27,0,0,1,8.92,50.157a8.044,8.044,0,0,1,3.527-4.222,17.3,17.3,0,0,1,3.561-2.029c-1.921-6.6,3.3-9.844,5.3-10.778,0,3.047,2.853,1.025,6.394,1.063,2.915.032,8.679,2.967,8.679-.9,3.207.949,6.7,7.06,4.3,10.815a15.382,15.382,0,0,1,2.78,1.749,8.906,8.906,0,0,1,3.621,4.561Z" transform="translate(-1.126 -4.181)" fill="#677079" fill-rule="evenodd"/>
    <path id="Path_13" data-name="Path 13" d="M24.031,38.68l13.037.079v3l-.006.046a2.432,2.432,0,0,1-.061.4l-.044.3-.026.062c-.844,4.434-4.538,6.147-6.818,7.341-2.4-1.309-5.8-3.667-6.07-7.84l-.011-.052v-.175q0-.09,0-.181c0,.031,0,.061,0,.093Z" transform="translate(-3.033 -4.882)" fill="#f9dca4" fill-rule="evenodd"/>
    <path id="Path_14" data-name="Path 14" d="M37.03,38.617v3.5a6.262,6.262,0,0,1-.083.968,5.251,5.251,0,0,1-.332,1.154c-4.53,3.421-11.747.615-12.9-5.228Z" transform="translate(-2.993 -4.874)" fill-rule="evenodd" opacity="0.11"/>
    <path id="Path_15" data-name="Path 15" d="M17.817,25.235c-4.317,1.11-.647,6.37,2.068,6.347a17.305,17.305,0,0,1-2.068-6.347Z" transform="translate(-1.998 -3.185)" fill="#f9dca4" fill-rule="evenodd"/>
    <path id="Path_16" data-name="Path 16" d="M43.538,25.235c4.317,1.11.647,6.37-2.069,6.346A17.3,17.3,0,0,0,43.538,25.235Z" transform="translate(-5.234 -3.185)" fill="#f9dca4" fill-rule="evenodd"/>
    <path id="Path_17" data-name="Path 17" d="M29.175,11.361c17.933,0,10.944,28.351,0,28.351C18.838,39.712,11.242,11.361,29.175,11.361Z" transform="translate(-2.321 -1.434)" fill="#ffe8be" fill-rule="evenodd"/>
    <path id="Path_18" data-name="Path 18" d="M20.479,19.79a1.519,1.519,0,0,1-.362,2.338C18.85,23.171,18.8,26.806,18.8,26.806c-.489-.486-.478-3.088-1.539-4.592S15.49,10.188,21.422,6.362a3.728,3.728,0,0,0-.815,3.146S24.728,3.6,31.564,3.768a4.394,4.394,0,0,0-2.173,2.849s5.977-2.466,10.957.467a11.863,11.863,0,0,0-3.622,1.7c2.419.066,4.756.516,6.518,2.083a2.981,2.981,0,0,0-1.9,3.827c.748,3.061.818,5.909.093,7.439s-1.066.543-1.52,3.753a1.406,1.406,0,0,1-.673,1.061c-.017.232.334-3.282-.572-4.218s-.336-2.084.025-2.764c2.525-4.742-5.037-6.891-9.171-6.885-3.585,0-12.233,1.634-9.047,6.708Z" transform="translate(-2.089 -0.475)" fill="#8a5c42" fill-rule="evenodd"/>
    <path id="Path_19" data-name="Path 19" d="M19.79,49.137c.026.033,9.1,11.781,19.774-.175-1.289,3.541-6.848,6.352-10.028,6.344-6.073-.017-9.433-4.893-9.746-6.169Z" transform="translate(-2.498 -6.179)" fill="#434955" fill-rule="evenodd"/>
    <path id="Path_20" data-name="Path 20" d="M34.941,60.154c-.358.063-.718.118-1.081.168V52.513a.549.549,0,0,1,1.081,0ZM26.36,60.3q-.543-.078-1.081-.175V52.513a.55.55,0,0,1,1.082,0Z" transform="translate(-3.19 -6.57)" fill="#e6e6e6" fill-rule="evenodd"/>
  </g>
</svg>
